<mxfile host="app.diagrams.net" agent="Mozilla/5.0 (Macintosh; Intel Mac OS X 10.15; rv:139.0) Gecko/20100101 Firefox/139.0" version="27.1.4">
  <diagram name="Seite-1" id="PImQ8ZvpbGjvDetX5D6X">
    <mxGraphModel dx="3667" dy="1220" grid="1" gridSize="10" guides="1" tooltips="1" connect="1" arrows="1" fold="1" page="1" pageScale="1" pageWidth="1169" pageHeight="827" math="0" shadow="0">
      <root>
        <mxCell id="0" />
        <mxCell id="1" parent="0" />
        <mxCell id="YWCcuyN2tKBoMI5iw6fs-143" value="" style="rounded=0;whiteSpace=wrap;html=1;dashed=1;fillColor=#dae8fc;strokeColor=#6c8ebf;" vertex="1" parent="1">
          <mxGeometry x="630" y="152.5" width="790" height="607.5" as="geometry" />
        </mxCell>
        <mxCell id="YWCcuyN2tKBoMI5iw6fs-134" value="" style="rounded=0;whiteSpace=wrap;html=1;dashed=1;fillColor=#ffe6cc;strokeColor=#d79b00;" vertex="1" parent="1">
          <mxGeometry x="1659" y="416" width="742" height="190" as="geometry" />
        </mxCell>
        <mxCell id="YWCcuyN2tKBoMI5iw6fs-127" value="" style="rounded=0;whiteSpace=wrap;html=1;dashed=1;fillColor=#f8cecc;strokeColor=#b85450;" vertex="1" parent="1">
          <mxGeometry x="1440" y="120" width="182" height="250" as="geometry" />
        </mxCell>
        <mxCell id="YWCcuyN2tKBoMI5iw6fs-34" value="" style="rounded=0;whiteSpace=wrap;html=1;dashed=1;fillColor=#d5e8d4;strokeColor=#82b366;" vertex="1" parent="1">
          <mxGeometry x="-93" y="65" width="710" height="415" as="geometry" />
        </mxCell>
        <mxCell id="YWCcuyN2tKBoMI5iw6fs-6" value="" style="edgeStyle=orthogonalEdgeStyle;rounded=0;orthogonalLoop=1;jettySize=auto;html=1;entryX=0;entryY=0.5;entryDx=0;entryDy=0;" edge="1" parent="1" source="YWCcuyN2tKBoMI5iw6fs-1" target="YWCcuyN2tKBoMI5iw6fs-5">
          <mxGeometry x="0.007" relative="1" as="geometry">
            <mxPoint as="offset" />
          </mxGeometry>
        </mxCell>
        <mxCell id="YWCcuyN2tKBoMI5iw6fs-1" value="local LLM" style="rounded=0;whiteSpace=wrap;html=1;" vertex="1" parent="1">
          <mxGeometry x="167" y="147.5" width="120" height="60" as="geometry" />
        </mxCell>
        <mxCell id="YWCcuyN2tKBoMI5iw6fs-4" value="" style="edgeStyle=orthogonalEdgeStyle;rounded=0;orthogonalLoop=1;jettySize=auto;html=1;entryX=0;entryY=0.5;entryDx=0;entryDy=0;" edge="1" parent="1" source="YWCcuyN2tKBoMI5iw6fs-3" target="YWCcuyN2tKBoMI5iw6fs-1">
          <mxGeometry relative="1" as="geometry" />
        </mxCell>
        <mxCell id="YWCcuyN2tKBoMI5iw6fs-3" value="&lt;div&gt;&lt;i&gt;Prompt:&amp;nbsp;&lt;/i&gt;&lt;br&gt;&lt;/div&gt;&lt;div&gt;Your &lt;b&gt;task&lt;/b&gt; is to [...] following these &lt;b&gt;rules&lt;/b&gt; [...] into this &lt;b&gt;JSON format&lt;/b&gt; [...]. Apply this to the following &lt;b&gt;text&lt;/b&gt;: [...]&lt;/div&gt;" style="shape=note;whiteSpace=wrap;html=1;backgroundOutline=1;darkOpacity=0.05;" vertex="1" parent="1">
          <mxGeometry x="-74" y="120" width="200" height="115" as="geometry" />
        </mxCell>
        <mxCell id="YWCcuyN2tKBoMI5iw6fs-77" style="edgeStyle=orthogonalEdgeStyle;rounded=0;orthogonalLoop=1;jettySize=auto;html=1;exitX=1;exitY=0.5;exitDx=0;exitDy=0;entryX=0;entryY=0.5;entryDx=0;entryDy=0;" edge="1" parent="1" source="YWCcuyN2tKBoMI5iw6fs-5" target="YWCcuyN2tKBoMI5iw6fs-76">
          <mxGeometry relative="1" as="geometry" />
        </mxCell>
        <mxCell id="YWCcuyN2tKBoMI5iw6fs-5" value="&lt;div&gt;&lt;b&gt;JSON:&lt;/b&gt;&lt;/div&gt;&lt;div align=&quot;left&quot;&gt;{&lt;br&gt;&amp;nbsp; &quot;copyrights&quot;: [],&lt;br&gt;&amp;nbsp; &quot;holders&quot;: [],&lt;br&gt;&amp;nbsp; &quot;authors&quot;: []&lt;br&gt;}&lt;/div&gt;" style="rounded=0;whiteSpace=wrap;html=1;align=left;" vertex="1" parent="1">
          <mxGeometry x="327" y="124.38000000000001" width="100" height="106.25" as="geometry" />
        </mxCell>
        <mxCell id="YWCcuyN2tKBoMI5iw6fs-7" value="&lt;b&gt;Zero-Shot Approach&lt;/b&gt;" style="text;html=1;align=center;verticalAlign=middle;whiteSpace=wrap;rounded=0;" vertex="1" parent="1">
          <mxGeometry x="-74" y="80" width="130" height="30" as="geometry" />
        </mxCell>
        <mxCell id="YWCcuyN2tKBoMI5iw6fs-13" value="&lt;b&gt;Few-Shot Approach&lt;/b&gt;" style="text;html=1;align=center;verticalAlign=middle;whiteSpace=wrap;rounded=0;" vertex="1" parent="1">
          <mxGeometry x="-74" y="280" width="130" height="30" as="geometry" />
        </mxCell>
        <mxCell id="YWCcuyN2tKBoMI5iw6fs-14" value="" style="edgeStyle=orthogonalEdgeStyle;rounded=0;orthogonalLoop=1;jettySize=auto;html=1;entryX=0;entryY=0.5;entryDx=0;entryDy=0;" edge="1" parent="1" source="YWCcuyN2tKBoMI5iw6fs-15" target="YWCcuyN2tKBoMI5iw6fs-18">
          <mxGeometry relative="1" as="geometry" />
        </mxCell>
        <mxCell id="YWCcuyN2tKBoMI5iw6fs-15" value="local LLM" style="rounded=0;whiteSpace=wrap;html=1;" vertex="1" parent="1">
          <mxGeometry x="167" y="347.51" width="120" height="60" as="geometry" />
        </mxCell>
        <mxCell id="YWCcuyN2tKBoMI5iw6fs-16" value="" style="edgeStyle=orthogonalEdgeStyle;rounded=0;orthogonalLoop=1;jettySize=auto;html=1;entryX=0;entryY=0.5;entryDx=0;entryDy=0;" edge="1" parent="1" source="YWCcuyN2tKBoMI5iw6fs-17" target="YWCcuyN2tKBoMI5iw6fs-15">
          <mxGeometry relative="1" as="geometry" />
        </mxCell>
        <mxCell id="YWCcuyN2tKBoMI5iw6fs-17" value="&lt;div&gt;&lt;i&gt;Prompt:&amp;nbsp;&lt;/i&gt;&lt;br&gt;&lt;/div&gt;&lt;div&gt;Your &lt;b&gt;task&lt;/b&gt; is to [...] following these &lt;b&gt;rules&lt;/b&gt; [...] into this &lt;b&gt;JSON format&lt;/b&gt; [...]. Considering these &lt;b&gt;examples&lt;/b&gt; [...] apply this to the following &lt;b&gt;text&lt;/b&gt;: [...]&lt;/div&gt;" style="shape=note;whiteSpace=wrap;html=1;backgroundOutline=1;darkOpacity=0.05;" vertex="1" parent="1">
          <mxGeometry x="-74" y="320" width="200" height="115" as="geometry" />
        </mxCell>
        <mxCell id="YWCcuyN2tKBoMI5iw6fs-78" style="edgeStyle=orthogonalEdgeStyle;rounded=0;orthogonalLoop=1;jettySize=auto;html=1;entryX=0;entryY=0.5;entryDx=0;entryDy=0;" edge="1" parent="1" source="YWCcuyN2tKBoMI5iw6fs-18" target="YWCcuyN2tKBoMI5iw6fs-76">
          <mxGeometry relative="1" as="geometry" />
        </mxCell>
        <mxCell id="YWCcuyN2tKBoMI5iw6fs-18" value="&lt;div&gt;&lt;b&gt;JSON:&lt;/b&gt;&lt;/div&gt;&lt;div align=&quot;left&quot;&gt;{&lt;br&gt;&amp;nbsp; &quot;copyrights&quot;: [],&lt;br&gt;&amp;nbsp; &quot;holders&quot;: [],&lt;br&gt;&amp;nbsp; &quot;authors&quot;: []&lt;br&gt;}&lt;/div&gt;" style="rounded=0;whiteSpace=wrap;html=1;align=left;" vertex="1" parent="1">
          <mxGeometry x="327" y="324.38" width="100" height="106.25" as="geometry" />
        </mxCell>
        <mxCell id="YWCcuyN2tKBoMI5iw6fs-37" style="edgeStyle=orthogonalEdgeStyle;rounded=0;orthogonalLoop=1;jettySize=auto;html=1;entryX=0;entryY=0.5;entryDx=0;entryDy=0;" edge="1" parent="1" source="YWCcuyN2tKBoMI5iw6fs-19" target="YWCcuyN2tKBoMI5iw6fs-36">
          <mxGeometry relative="1" as="geometry" />
        </mxCell>
        <mxCell id="YWCcuyN2tKBoMI5iw6fs-38" value="select relevant subset" style="edgeLabel;html=1;align=center;verticalAlign=middle;resizable=0;points=[];" vertex="1" connectable="0" parent="YWCcuyN2tKBoMI5iw6fs-37">
          <mxGeometry x="-0.0235" y="2" relative="1" as="geometry">
            <mxPoint as="offset" />
          </mxGeometry>
        </mxCell>
        <mxCell id="YWCcuyN2tKBoMI5iw6fs-19" value="ScanCode Copyrights" style="rounded=0;whiteSpace=wrap;html=1;" vertex="1" parent="1">
          <mxGeometry x="351" y="520" width="120" height="60" as="geometry" />
        </mxCell>
        <mxCell id="YWCcuyN2tKBoMI5iw6fs-40" style="edgeStyle=orthogonalEdgeStyle;rounded=0;orthogonalLoop=1;jettySize=auto;html=1;entryX=0;entryY=0.5;entryDx=0;entryDy=0;" edge="1" parent="1" source="YWCcuyN2tKBoMI5iw6fs-20" target="YWCcuyN2tKBoMI5iw6fs-39">
          <mxGeometry relative="1" as="geometry" />
        </mxCell>
        <mxCell id="YWCcuyN2tKBoMI5iw6fs-43" value="select relevant subset" style="edgeLabel;html=1;align=center;verticalAlign=middle;resizable=0;points=[];" vertex="1" connectable="0" parent="YWCcuyN2tKBoMI5iw6fs-40">
          <mxGeometry x="-0.013" y="-1" relative="1" as="geometry">
            <mxPoint as="offset" />
          </mxGeometry>
        </mxCell>
        <mxCell id="YWCcuyN2tKBoMI5iw6fs-20" value="Metaeffekt Terms Metadata" style="rounded=0;whiteSpace=wrap;html=1;" vertex="1" parent="1">
          <mxGeometry x="351" y="600" width="120" height="60" as="geometry" />
        </mxCell>
        <mxCell id="YWCcuyN2tKBoMI5iw6fs-47" style="edgeStyle=orthogonalEdgeStyle;rounded=0;orthogonalLoop=1;jettySize=auto;html=1;entryX=0;entryY=0.5;entryDx=0;entryDy=0;" edge="1" parent="1" source="YWCcuyN2tKBoMI5iw6fs-21" target="YWCcuyN2tKBoMI5iw6fs-22">
          <mxGeometry relative="1" as="geometry" />
        </mxCell>
        <mxCell id="YWCcuyN2tKBoMI5iw6fs-67" style="edgeStyle=orthogonalEdgeStyle;rounded=0;orthogonalLoop=1;jettySize=auto;html=1;entryX=0;entryY=0.5;entryDx=0;entryDy=0;" edge="1" parent="1" source="YWCcuyN2tKBoMI5iw6fs-21" target="YWCcuyN2tKBoMI5iw6fs-61">
          <mxGeometry relative="1" as="geometry">
            <Array as="points">
              <mxPoint x="711" y="750" />
              <mxPoint x="850" y="750" />
              <mxPoint x="850" y="670" />
            </Array>
          </mxGeometry>
        </mxCell>
        <mxCell id="YWCcuyN2tKBoMI5iw6fs-21" value="Customer Alpine Scan" style="rounded=0;whiteSpace=wrap;html=1;" vertex="1" parent="1">
          <mxGeometry x="651" y="680" width="120" height="60" as="geometry" />
        </mxCell>
        <mxCell id="YWCcuyN2tKBoMI5iw6fs-22" value="rule-based filtering" style="rounded=0;whiteSpace=wrap;html=1;" vertex="1" parent="1">
          <mxGeometry x="880" y="430.63" width="120" height="60" as="geometry" />
        </mxCell>
        <mxCell id="YWCcuyN2tKBoMI5iw6fs-24" style="edgeStyle=orthogonalEdgeStyle;rounded=0;orthogonalLoop=1;jettySize=auto;html=1;entryX=0.5;entryY=0;entryDx=0;entryDy=0;" edge="1" parent="1" source="YWCcuyN2tKBoMI5iw6fs-23" target="YWCcuyN2tKBoMI5iw6fs-22">
          <mxGeometry relative="1" as="geometry" />
        </mxCell>
        <mxCell id="YWCcuyN2tKBoMI5iw6fs-23" value="Policy" style="shape=note;whiteSpace=wrap;html=1;backgroundOutline=1;darkOpacity=0.05;" vertex="1" parent="1">
          <mxGeometry x="900" y="260" width="80" height="100" as="geometry" />
        </mxCell>
        <mxCell id="YWCcuyN2tKBoMI5iw6fs-44" style="edgeStyle=orthogonalEdgeStyle;rounded=0;orthogonalLoop=1;jettySize=auto;html=1;entryX=0;entryY=0.5;entryDx=0;entryDy=0;" edge="1" parent="1" source="YWCcuyN2tKBoMI5iw6fs-36" target="YWCcuyN2tKBoMI5iw6fs-22">
          <mxGeometry relative="1" as="geometry" />
        </mxCell>
        <mxCell id="YWCcuyN2tKBoMI5iw6fs-65" style="edgeStyle=orthogonalEdgeStyle;rounded=0;orthogonalLoop=1;jettySize=auto;html=1;exitX=0.5;exitY=1;exitDx=0;exitDy=0;entryX=0;entryY=0.5;entryDx=0;entryDy=0;" edge="1" parent="1" source="YWCcuyN2tKBoMI5iw6fs-36" target="YWCcuyN2tKBoMI5iw6fs-61">
          <mxGeometry relative="1" as="geometry">
            <Array as="points">
              <mxPoint x="710" y="580" />
              <mxPoint x="710" y="590" />
              <mxPoint x="850" y="590" />
              <mxPoint x="850" y="670" />
            </Array>
          </mxGeometry>
        </mxCell>
        <mxCell id="YWCcuyN2tKBoMI5iw6fs-36" value="ScanCode Copyrights&#39;" style="rounded=0;whiteSpace=wrap;html=1;" vertex="1" parent="1">
          <mxGeometry x="651" y="520" width="120" height="60" as="geometry" />
        </mxCell>
        <mxCell id="YWCcuyN2tKBoMI5iw6fs-46" style="edgeStyle=orthogonalEdgeStyle;rounded=0;orthogonalLoop=1;jettySize=auto;html=1;entryX=0;entryY=0.5;entryDx=0;entryDy=0;" edge="1" parent="1" source="YWCcuyN2tKBoMI5iw6fs-39" target="YWCcuyN2tKBoMI5iw6fs-22">
          <mxGeometry relative="1" as="geometry" />
        </mxCell>
        <mxCell id="YWCcuyN2tKBoMI5iw6fs-66" style="edgeStyle=orthogonalEdgeStyle;rounded=0;orthogonalLoop=1;jettySize=auto;html=1;exitX=0.5;exitY=1;exitDx=0;exitDy=0;entryX=0;entryY=0.5;entryDx=0;entryDy=0;" edge="1" parent="1" source="YWCcuyN2tKBoMI5iw6fs-39" target="YWCcuyN2tKBoMI5iw6fs-61">
          <mxGeometry relative="1" as="geometry">
            <Array as="points">
              <mxPoint x="711" y="670" />
            </Array>
          </mxGeometry>
        </mxCell>
        <mxCell id="YWCcuyN2tKBoMI5iw6fs-39" value="Metaeffekt Terms Metadata&#39;" style="rounded=0;whiteSpace=wrap;html=1;" vertex="1" parent="1">
          <mxGeometry x="651" y="600" width="120" height="60" as="geometry" />
        </mxCell>
        <mxCell id="YWCcuyN2tKBoMI5iw6fs-55" style="edgeStyle=orthogonalEdgeStyle;rounded=0;orthogonalLoop=1;jettySize=auto;html=1;entryX=0.5;entryY=0;entryDx=0;entryDy=0;entryPerimeter=0;" edge="1" parent="1" target="YWCcuyN2tKBoMI5iw6fs-23">
          <mxGeometry relative="1" as="geometry">
            <mxPoint x="1160.0476190476188" y="313.1300000000001" as="sourcePoint" />
            <Array as="points">
              <mxPoint x="1160" y="190" />
              <mxPoint x="940" y="190" />
            </Array>
          </mxGeometry>
        </mxCell>
        <mxCell id="YWCcuyN2tKBoMI5iw6fs-56" value="improve policy with new insights" style="edgeLabel;html=1;align=center;verticalAlign=middle;resizable=0;points=[];" vertex="1" connectable="0" parent="YWCcuyN2tKBoMI5iw6fs-55">
          <mxGeometry x="0.1272" relative="1" as="geometry">
            <mxPoint as="offset" />
          </mxGeometry>
        </mxCell>
        <mxCell id="YWCcuyN2tKBoMI5iw6fs-61" value="manually curate data" style="rounded=0;whiteSpace=wrap;html=1;" vertex="1" parent="1">
          <mxGeometry x="880" y="640" width="120" height="60" as="geometry" />
        </mxCell>
        <mxCell id="YWCcuyN2tKBoMI5iw6fs-75" style="edgeStyle=orthogonalEdgeStyle;rounded=0;orthogonalLoop=1;jettySize=auto;html=1;entryX=0.5;entryY=0;entryDx=0;entryDy=0;" edge="1" parent="1" target="YWCcuyN2tKBoMI5iw6fs-34">
          <mxGeometry relative="1" as="geometry">
            <mxPoint x="1340" y="430" as="sourcePoint" />
            <Array as="points">
              <mxPoint x="1340" y="45" />
              <mxPoint x="262" y="45" />
            </Array>
          </mxGeometry>
        </mxCell>
        <mxCell id="YWCcuyN2tKBoMI5iw6fs-94" value="use data to evaluate results from zero-shot / few-shot approaches" style="edgeLabel;html=1;align=center;verticalAlign=middle;resizable=0;points=[];" vertex="1" connectable="0" parent="YWCcuyN2tKBoMI5iw6fs-75">
          <mxGeometry x="0.1373" relative="1" as="geometry">
            <mxPoint as="offset" />
          </mxGeometry>
        </mxCell>
        <mxCell id="YWCcuyN2tKBoMI5iw6fs-96" style="edgeStyle=orthogonalEdgeStyle;rounded=0;orthogonalLoop=1;jettySize=auto;html=1;" edge="1" parent="1" source="YWCcuyN2tKBoMI5iw6fs-71" target="YWCcuyN2tKBoMI5iw6fs-80">
          <mxGeometry relative="1" as="geometry" />
        </mxCell>
        <mxCell id="YWCcuyN2tKBoMI5iw6fs-145" style="edgeStyle=orthogonalEdgeStyle;rounded=0;orthogonalLoop=1;jettySize=auto;html=1;" edge="1" parent="1" source="YWCcuyN2tKBoMI5iw6fs-71">
          <mxGeometry relative="1" as="geometry">
            <mxPoint x="2321" y="530" as="targetPoint" />
            <Array as="points">
              <mxPoint x="1340" y="740" />
              <mxPoint x="2321" y="740" />
            </Array>
          </mxGeometry>
        </mxCell>
        <mxCell id="YWCcuyN2tKBoMI5iw6fs-146" value="use data to evaluate results from Copyright-Scanner" style="edgeLabel;html=1;align=center;verticalAlign=middle;resizable=0;points=[];" vertex="1" connectable="0" parent="YWCcuyN2tKBoMI5iw6fs-145">
          <mxGeometry x="0.0452" relative="1" as="geometry">
            <mxPoint as="offset" />
          </mxGeometry>
        </mxCell>
        <mxCell id="YWCcuyN2tKBoMI5iw6fs-71" value="test / evaluation data set" style="rounded=0;whiteSpace=wrap;html=1;" vertex="1" parent="1">
          <mxGeometry x="1280" y="430.63" width="120" height="60" as="geometry" />
        </mxCell>
        <mxCell id="YWCcuyN2tKBoMI5iw6fs-79" style="edgeStyle=orthogonalEdgeStyle;rounded=0;orthogonalLoop=1;jettySize=auto;html=1;entryX=0;entryY=0.5;entryDx=0;entryDy=0;" edge="1" parent="1" source="YWCcuyN2tKBoMI5iw6fs-76" target="YWCcuyN2tKBoMI5iw6fs-22">
          <mxGeometry relative="1" as="geometry" />
        </mxCell>
        <mxCell id="YWCcuyN2tKBoMI5iw6fs-76" value="LLM generated data" style="rounded=0;whiteSpace=wrap;html=1;" vertex="1" parent="1">
          <mxGeometry x="477" y="253.13" width="120" height="60" as="geometry" />
        </mxCell>
        <mxCell id="YWCcuyN2tKBoMI5iw6fs-80" value="fine-tune LLM" style="rounded=0;whiteSpace=wrap;html=1;" vertex="1" parent="1">
          <mxGeometry x="1442" y="640" width="120" height="60" as="geometry" />
        </mxCell>
        <mxCell id="YWCcuyN2tKBoMI5iw6fs-88" style="edgeStyle=orthogonalEdgeStyle;rounded=0;orthogonalLoop=1;jettySize=auto;html=1;entryX=0;entryY=0.5;entryDx=0;entryDy=0;" edge="1" parent="1" source="YWCcuyN2tKBoMI5iw6fs-84" target="YWCcuyN2tKBoMI5iw6fs-71">
          <mxGeometry relative="1" as="geometry" />
        </mxCell>
        <mxCell id="YWCcuyN2tKBoMI5iw6fs-84" value="already fulfills policy" style="shape=cylinder3;whiteSpace=wrap;html=1;boundedLbl=1;backgroundOutline=1;size=15;" vertex="1" parent="1">
          <mxGeometry x="1130" y="320" width="60" height="80" as="geometry" />
        </mxCell>
        <mxCell id="YWCcuyN2tKBoMI5iw6fs-85" value="ignore" style="shape=cylinder3;whiteSpace=wrap;html=1;boundedLbl=1;backgroundOutline=1;size=15;" vertex="1" parent="1">
          <mxGeometry x="1130" y="420.63" width="60" height="80" as="geometry" />
        </mxCell>
        <mxCell id="YWCcuyN2tKBoMI5iw6fs-90" style="edgeStyle=orthogonalEdgeStyle;rounded=0;orthogonalLoop=1;jettySize=auto;html=1;entryX=0;entryY=0.5;entryDx=0;entryDy=0;" edge="1" parent="1" source="YWCcuyN2tKBoMI5iw6fs-86" target="YWCcuyN2tKBoMI5iw6fs-71">
          <mxGeometry relative="1" as="geometry" />
        </mxCell>
        <mxCell id="YWCcuyN2tKBoMI5iw6fs-86" value="curate" style="shape=cylinder3;whiteSpace=wrap;html=1;boundedLbl=1;backgroundOutline=1;size=15;" vertex="1" parent="1">
          <mxGeometry x="1130" y="520" width="60" height="80" as="geometry" />
        </mxCell>
        <mxCell id="YWCcuyN2tKBoMI5iw6fs-92" style="edgeStyle=orthogonalEdgeStyle;rounded=0;orthogonalLoop=1;jettySize=auto;html=1;" edge="1" parent="1" source="YWCcuyN2tKBoMI5iw6fs-91">
          <mxGeometry relative="1" as="geometry">
            <mxPoint x="1440" y="670" as="targetPoint" />
          </mxGeometry>
        </mxCell>
        <mxCell id="YWCcuyN2tKBoMI5iw6fs-91" value="manually curated" style="shape=cylinder3;whiteSpace=wrap;html=1;boundedLbl=1;backgroundOutline=1;size=15;" vertex="1" parent="1">
          <mxGeometry x="1130" y="630" width="60" height="80" as="geometry" />
        </mxCell>
        <mxCell id="YWCcuyN2tKBoMI5iw6fs-93" style="edgeStyle=orthogonalEdgeStyle;rounded=0;orthogonalLoop=1;jettySize=auto;html=1;entryX=0;entryY=0.5;entryDx=0;entryDy=0;entryPerimeter=0;" edge="1" parent="1" source="YWCcuyN2tKBoMI5iw6fs-61" target="YWCcuyN2tKBoMI5iw6fs-91">
          <mxGeometry relative="1" as="geometry" />
        </mxCell>
        <mxCell id="YWCcuyN2tKBoMI5iw6fs-104" style="edgeStyle=orthogonalEdgeStyle;rounded=0;orthogonalLoop=1;jettySize=auto;html=1;entryX=0;entryY=0.5;entryDx=0;entryDy=0;" edge="1" parent="1" source="YWCcuyN2tKBoMI5iw6fs-100" target="YWCcuyN2tKBoMI5iw6fs-102">
          <mxGeometry relative="1" as="geometry" />
        </mxCell>
        <mxCell id="YWCcuyN2tKBoMI5iw6fs-130" style="edgeStyle=orthogonalEdgeStyle;rounded=0;orthogonalLoop=1;jettySize=auto;html=1;entryX=0;entryY=0.5;entryDx=0;entryDy=0;" edge="1" parent="1" source="YWCcuyN2tKBoMI5iw6fs-100" target="YWCcuyN2tKBoMI5iw6fs-128">
          <mxGeometry relative="1" as="geometry" />
        </mxCell>
        <mxCell id="YWCcuyN2tKBoMI5iw6fs-100" value="prompt engine" style="rounded=0;whiteSpace=wrap;html=1;" vertex="1" parent="1">
          <mxGeometry x="1671" y="466.26" width="120" height="60" as="geometry" />
        </mxCell>
        <mxCell id="YWCcuyN2tKBoMI5iw6fs-106" style="edgeStyle=orthogonalEdgeStyle;rounded=0;orthogonalLoop=1;jettySize=auto;html=1;entryX=0;entryY=0.5;entryDx=0;entryDy=0;" edge="1" parent="1" source="YWCcuyN2tKBoMI5iw6fs-102" target="YWCcuyN2tKBoMI5iw6fs-105">
          <mxGeometry relative="1" as="geometry" />
        </mxCell>
        <mxCell id="YWCcuyN2tKBoMI5iw6fs-102" value="fine-tuned LLM" style="rounded=0;whiteSpace=wrap;html=1;" vertex="1" parent="1">
          <mxGeometry x="1871" y="526.26" width="120" height="60" as="geometry" />
        </mxCell>
        <mxCell id="YWCcuyN2tKBoMI5iw6fs-103" style="edgeStyle=orthogonalEdgeStyle;rounded=0;orthogonalLoop=1;jettySize=auto;html=1;entryX=0.553;entryY=1.016;entryDx=0;entryDy=0;entryPerimeter=0;exitX=1;exitY=0.5;exitDx=0;exitDy=0;" edge="1" parent="1" source="YWCcuyN2tKBoMI5iw6fs-80" target="YWCcuyN2tKBoMI5iw6fs-102">
          <mxGeometry relative="1" as="geometry">
            <mxPoint x="1422" y="670.047619047619" as="sourcePoint" />
          </mxGeometry>
        </mxCell>
        <mxCell id="YWCcuyN2tKBoMI5iw6fs-108" style="edgeStyle=orthogonalEdgeStyle;rounded=0;orthogonalLoop=1;jettySize=auto;html=1;entryX=0;entryY=0.5;entryDx=0;entryDy=0;" edge="1" parent="1" source="YWCcuyN2tKBoMI5iw6fs-105" target="YWCcuyN2tKBoMI5iw6fs-107">
          <mxGeometry relative="1" as="geometry" />
        </mxCell>
        <mxCell id="YWCcuyN2tKBoMI5iw6fs-105" value="LLM generated data" style="rounded=0;whiteSpace=wrap;html=1;" vertex="1" parent="1">
          <mxGeometry x="2071" y="466.26" width="120" height="60" as="geometry" />
        </mxCell>
        <mxCell id="YWCcuyN2tKBoMI5iw6fs-107" value="&lt;div&gt;validate data&amp;nbsp;&lt;/div&gt;&lt;div&gt;(with LLM)&lt;/div&gt;" style="rounded=0;whiteSpace=wrap;html=1;" vertex="1" parent="1">
          <mxGeometry x="2261" y="466.26" width="120" height="60" as="geometry" />
        </mxCell>
        <mxCell id="YWCcuyN2tKBoMI5iw6fs-125" style="edgeStyle=orthogonalEdgeStyle;rounded=0;orthogonalLoop=1;jettySize=auto;html=1;entryX=0.5;entryY=0;entryDx=0;entryDy=0;" edge="1" parent="1" source="YWCcuyN2tKBoMI5iw6fs-117" target="YWCcuyN2tKBoMI5iw6fs-122">
          <mxGeometry relative="1" as="geometry" />
        </mxCell>
        <mxCell id="YWCcuyN2tKBoMI5iw6fs-141" style="edgeStyle=orthogonalEdgeStyle;rounded=0;orthogonalLoop=1;jettySize=auto;html=1;entryX=0;entryY=0.5;entryDx=0;entryDy=0;" edge="1" parent="1" source="YWCcuyN2tKBoMI5iw6fs-117" target="YWCcuyN2tKBoMI5iw6fs-100">
          <mxGeometry relative="1" as="geometry" />
        </mxCell>
        <mxCell id="YWCcuyN2tKBoMI5iw6fs-117" value="input data" style="rounded=0;whiteSpace=wrap;html=1;" vertex="1" parent="1">
          <mxGeometry x="1582" y="20" width="120" height="60" as="geometry" />
        </mxCell>
        <mxCell id="YWCcuyN2tKBoMI5iw6fs-123" style="edgeStyle=orthogonalEdgeStyle;rounded=0;orthogonalLoop=1;jettySize=auto;html=1;exitX=0.5;exitY=1;exitDx=0;exitDy=0;exitPerimeter=0;entryX=0.5;entryY=0;entryDx=0;entryDy=0;" edge="1" parent="1" source="YWCcuyN2tKBoMI5iw6fs-120" target="YWCcuyN2tKBoMI5iw6fs-122">
          <mxGeometry relative="1" as="geometry" />
        </mxCell>
        <mxCell id="YWCcuyN2tKBoMI5iw6fs-120" value="derived dictionary" style="shape=cylinder3;whiteSpace=wrap;html=1;boundedLbl=1;backgroundOutline=1;size=15;" vertex="1" parent="1">
          <mxGeometry x="1462" y="130" width="60" height="80" as="geometry" />
        </mxCell>
        <mxCell id="YWCcuyN2tKBoMI5iw6fs-121" style="edgeStyle=orthogonalEdgeStyle;rounded=0;orthogonalLoop=1;jettySize=auto;html=1;entryX=0;entryY=0.5;entryDx=0;entryDy=0;entryPerimeter=0;exitX=1;exitY=0.5;exitDx=0;exitDy=0;" edge="1" parent="1" source="YWCcuyN2tKBoMI5iw6fs-71" target="YWCcuyN2tKBoMI5iw6fs-120">
          <mxGeometry relative="1" as="geometry">
            <mxPoint x="1422" y="460.6190476190475" as="sourcePoint" />
          </mxGeometry>
        </mxCell>
        <mxCell id="YWCcuyN2tKBoMI5iw6fs-140" style="edgeStyle=orthogonalEdgeStyle;rounded=0;orthogonalLoop=1;jettySize=auto;html=1;entryX=0;entryY=0.5;entryDx=0;entryDy=0;" edge="1" parent="1" source="YWCcuyN2tKBoMI5iw6fs-122" target="YWCcuyN2tKBoMI5iw6fs-100">
          <mxGeometry relative="1" as="geometry">
            <Array as="points">
              <mxPoint x="1542" y="496" />
            </Array>
          </mxGeometry>
        </mxCell>
        <mxCell id="YWCcuyN2tKBoMI5iw6fs-122" value="reduced input data" style="rounded=0;whiteSpace=wrap;html=1;" vertex="1" parent="1">
          <mxGeometry x="1482" y="265" width="120" height="60" as="geometry" />
        </mxCell>
        <mxCell id="YWCcuyN2tKBoMI5iw6fs-131" style="edgeStyle=orthogonalEdgeStyle;rounded=0;orthogonalLoop=1;jettySize=auto;html=1;entryX=0;entryY=0.5;entryDx=0;entryDy=0;" edge="1" parent="1" source="YWCcuyN2tKBoMI5iw6fs-128" target="YWCcuyN2tKBoMI5iw6fs-105">
          <mxGeometry relative="1" as="geometry" />
        </mxCell>
        <mxCell id="YWCcuyN2tKBoMI5iw6fs-128" value="local unaltered LLM" style="rounded=0;whiteSpace=wrap;html=1;" vertex="1" parent="1">
          <mxGeometry x="1871" y="426" width="120" height="60" as="geometry" />
        </mxCell>
        <mxCell id="YWCcuyN2tKBoMI5iw6fs-135" value="Prompt-Engineering Experiments" style="text;html=1;align=center;verticalAlign=middle;whiteSpace=wrap;rounded=0;fontStyle=1" vertex="1" parent="1">
          <mxGeometry x="-93" y="35" width="200" height="30" as="geometry" />
        </mxCell>
        <mxCell id="YWCcuyN2tKBoMI5iw6fs-136" value="&lt;b&gt;Input Segmentation/Reduction&lt;/b&gt;" style="text;html=1;align=center;verticalAlign=middle;whiteSpace=wrap;rounded=0;" vertex="1" parent="1">
          <mxGeometry x="1442" y="90" width="180" height="30" as="geometry" />
        </mxCell>
        <mxCell id="YWCcuyN2tKBoMI5iw6fs-139" value="&lt;b&gt;Copyright-Scanner&lt;/b&gt;" style="text;html=1;align=center;verticalAlign=middle;whiteSpace=wrap;rounded=0;" vertex="1" parent="1">
          <mxGeometry x="1659" y="384" width="111" height="30" as="geometry" />
        </mxCell>
        <mxCell id="YWCcuyN2tKBoMI5iw6fs-144" value="Dataset Creation" style="text;html=1;align=center;verticalAlign=middle;whiteSpace=wrap;rounded=0;fontStyle=1" vertex="1" parent="1">
          <mxGeometry x="630" y="122.5" width="200" height="30" as="geometry" />
        </mxCell>
        <mxCell id="YWCcuyN2tKBoMI5iw6fs-153" style="edgeStyle=orthogonalEdgeStyle;rounded=0;orthogonalLoop=1;jettySize=auto;html=1;entryX=0;entryY=0.5;entryDx=0;entryDy=0;entryPerimeter=0;" edge="1" parent="1" source="YWCcuyN2tKBoMI5iw6fs-22" target="YWCcuyN2tKBoMI5iw6fs-84">
          <mxGeometry relative="1" as="geometry" />
        </mxCell>
        <mxCell id="YWCcuyN2tKBoMI5iw6fs-154" style="edgeStyle=orthogonalEdgeStyle;rounded=0;orthogonalLoop=1;jettySize=auto;html=1;entryX=0;entryY=0.5;entryDx=0;entryDy=0;entryPerimeter=0;" edge="1" parent="1" source="YWCcuyN2tKBoMI5iw6fs-22" target="YWCcuyN2tKBoMI5iw6fs-85">
          <mxGeometry relative="1" as="geometry" />
        </mxCell>
        <mxCell id="YWCcuyN2tKBoMI5iw6fs-155" style="edgeStyle=orthogonalEdgeStyle;rounded=0;orthogonalLoop=1;jettySize=auto;html=1;entryX=0;entryY=0.5;entryDx=0;entryDy=0;entryPerimeter=0;" edge="1" parent="1" source="YWCcuyN2tKBoMI5iw6fs-22" target="YWCcuyN2tKBoMI5iw6fs-86">
          <mxGeometry relative="1" as="geometry" />
        </mxCell>
      </root>
    </mxGraphModel>
  </diagram>
</mxfile>
